<svg width="57" height="16" viewBox="0 0 57 16" fill="none" xmlns="http://www.w3.org/2000/svg">
<path d="M0.74 16C0.54 16 0.44 15.9 0.44 15.7V0.303999C0.44 0.103999 0.54 0.00399923 0.74 0.00399923H8.96C9.16 0.00399923 9.26 0.103999 9.26 0.303999V2.896C9.26 3.096 9.16 3.196 8.96 3.196H4.436V7.204H8.36C8.56 7.204 8.66 7.304 8.66 7.504V10.096C8.66 10.296 8.56 10.396 8.36 10.396H4.436V15.7C4.436 15.9 4.336 16 4.136 16H0.74ZM11.4744 16C11.2744 16 11.1744 15.9 11.1744 15.7V0.303999C11.1744 0.103999 11.2744 0.00399923 11.4744 0.00399923H14.8704C15.0704 0.00399923 15.1704 0.103999 15.1704 0.303999V15.7C15.1704 15.9 15.0704 16 14.8704 16H11.4744ZM20.7416 16C20.5416 16 20.4416 15.9 20.4416 15.7V3.196H18.3416C18.1416 3.196 18.0416 3.096 18.0416 2.896V0.303999C18.0416 0.103999 18.1416 0.00399923 18.3416 0.00399923H26.5376C26.7376 0.00399923 26.8376 0.103999 26.8376 0.303999V2.896C26.8376 3.096 26.7376 3.196 26.5376 3.196H24.4376V15.7C24.4376 15.9 24.3376 16 24.1376 16H20.7416ZM36.6178 16C36.4258 16 36.2658 15.932 36.1378 15.796L33.7378 13.396C33.6018 13.268 33.5338 13.108 33.5338 12.916V0.303999C33.5338 0.103999 33.6338 0.00399923 33.8338 0.00399923H37.2298C37.4298 0.00399923 37.5298 0.103999 37.5298 0.303999V12.556C37.5298 12.716 37.6098 12.796 37.7698 12.796H39.7378V0.303999C39.7378 0.103999 39.8378 0.00399923 40.0378 0.00399923H43.4338C43.6338 0.00399923 43.7338 0.103999 43.7338 0.303999V15.7C43.7338 15.9 43.6338 16 43.4338 16H36.6178ZM46.9119 16C46.7119 16 46.6119 15.9 46.6119 15.7V0.303999C46.6119 0.103999 46.7119 0.00399923 46.9119 0.00399923H53.5479C53.7399 0.00399923 53.8999 0.0679994 54.0279 0.196L56.4279 2.596C56.5639 2.732 56.6319 2.892 56.6319 3.076V7.216C56.6319 7.408 56.5639 7.568 56.4279 7.696L54.0279 10.096C53.8999 10.232 53.7399 10.3 53.5479 10.3H50.6079V15.7C50.6079 15.9 50.5079 16 50.3079 16H46.9119ZM51.5079 7.036C52.1719 7.036 52.6239 6.904 52.8639 6.64C53.1119 6.376 53.2359 5.876 53.2359 5.14C53.2359 4.404 53.1119 3.904 52.8639 3.64C52.6239 3.376 52.1719 3.244 51.5079 3.244C50.8519 3.244 50.3999 3.376 50.1519 3.64C49.9119 3.904 49.7919 4.404 49.7919 5.14C49.7919 5.876 49.9119 6.376 50.1519 6.64C50.3999 6.904 50.8519 7.036 51.5079 7.036Z" fill="black"/>
</svg>
