<svg width="59" height="30" viewBox="0 0 59 30" fill="none" xmlns="http://www.w3.org/2000/svg">
<path d="M1.74 24C1.54 24 1.44 23.9 1.44 23.7V8.304C1.44 8.104 1.54 8.004 1.74 8.004H9.96C10.16 8.004 10.26 8.104 10.26 8.304V10.896C10.26 11.096 10.16 11.196 9.96 11.196H5.436V15.204H9.36C9.56 15.204 9.66 15.304 9.66 15.504V18.096C9.66 18.296 9.56 18.396 9.36 18.396H5.436V23.7C5.436 23.9 5.336 24 5.136 24H1.74ZM12.4744 24C12.2744 24 12.1744 23.9 12.1744 23.7V8.304C12.1744 8.104 12.2744 8.004 12.4744 8.004H15.8704C16.0704 8.004 16.1704 8.104 16.1704 8.304V23.7C16.1704 23.9 16.0704 24 15.8704 24H12.4744ZM21.7416 24C21.5416 24 21.4416 23.9 21.4416 23.7V11.196H19.3416C19.1416 11.196 19.0416 11.096 19.0416 10.896V8.304C19.0416 8.104 19.1416 8.004 19.3416 8.004H27.5376C27.7376 8.004 27.8376 8.104 27.8376 8.304V10.896C27.8376 11.096 27.7376 11.196 27.5376 11.196H25.4376V23.7C25.4376 23.9 25.3376 24 25.1376 24H21.7416ZM37.6178 24C37.4258 24 37.2658 23.932 37.1378 23.796L34.7378 21.396C34.6018 21.268 34.5338 21.108 34.5338 20.916V8.304C34.5338 8.104 34.6338 8.004 34.8338 8.004H38.2298C38.4298 8.004 38.5298 8.104 38.5298 8.304V20.556C38.5298 20.716 38.6098 20.796 38.7698 20.796H40.7378V8.304C40.7378 8.104 40.8378 8.004 41.0378 8.004H44.4338C44.6338 8.004 44.7338 8.104 44.7338 8.304V23.7C44.7338 23.9 44.6338 24 44.4338 24H37.6178ZM47.9119 24C47.7119 24 47.6119 23.9 47.6119 23.7V8.304C47.6119 8.104 47.7119 8.004 47.9119 8.004H54.5479C54.7399 8.004 54.8999 8.068 55.0279 8.196L57.4279 10.596C57.5639 10.732 57.6319 10.892 57.6319 11.076V15.216C57.6319 15.408 57.5639 15.568 57.4279 15.696L55.0279 18.096C54.8999 18.232 54.7399 18.3 54.5479 18.3H51.6079V23.7C51.6079 23.9 51.5079 24 51.3079 24H47.9119ZM52.5079 15.036C53.1719 15.036 53.6239 14.904 53.8639 14.64C54.1119 14.376 54.2359 13.876 54.2359 13.14C54.2359 12.404 54.1119 11.904 53.8639 11.64C53.6239 11.376 53.1719 11.244 52.5079 11.244C51.8519 11.244 51.3999 11.376 51.1519 11.64C50.9119 11.904 50.7919 12.404 50.7919 13.14C50.7919 13.876 50.9119 14.376 51.1519 14.64C51.3999 14.904 51.8519 15.036 52.5079 15.036Z" fill="black"/>
<path d="M2.345 18C2.295 18 2.27 17.975 2.27 17.925V17.361C2.27 17.335 2.271 17.314 2.273 17.298C2.277 17.282 2.289 17.269 2.309 17.259L3.095 16.899V16.365L2.321 15.885C2.287 15.865 2.27 15.835 2.27 15.795V14.694C2.27 14.662 2.272 14.639 2.276 14.625C2.28 14.609 2.295 14.592 2.321 14.574L3.11 14.04C3.13 14.028 3.148 14.019 3.164 14.013C3.182 14.005 3.204 14.001 3.23 14.001H4.04C4.09 14.001 4.115 14.026 4.115 14.076V14.586C4.115 14.63 4.1 14.66 4.07 14.676L3.284 15V15.555L4.07 16.005C4.1 16.019 4.115 16.051 4.115 16.101V17.406C4.115 17.422 4.112 17.439 4.106 17.457C4.102 17.475 4.092 17.488 4.076 17.496L3.134 17.964C3.122 17.97 3.107 17.978 3.089 17.988C3.073 17.996 3.057 18 3.041 18H2.345ZM5.49477 18C5.44877 18 5.40877 17.983 5.37477 17.949L4.77477 17.349C4.74077 17.317 4.72377 17.277 4.72377 17.229V14.775C4.72377 14.725 4.74877 14.7 4.79877 14.7H5.59977C5.64977 14.7 5.67477 14.725 5.67477 14.775V17.25H6.17577V14.775C6.17577 14.725 6.20077 14.7 6.25077 14.7H7.04877C7.09877 14.7 7.12377 14.725 7.12377 14.775V17.25H7.62477V14.775C7.62477 14.725 7.64977 14.7 7.69977 14.7H8.50077C8.55077 14.7 8.57577 14.725 8.57577 14.775V17.229C8.57577 17.277 8.55877 17.317 8.52477 17.349L7.92477 17.949C7.89077 17.983 7.85077 18 7.80477 18H7.12077C7.07277 18 7.03277 17.983 7.00077 17.949L6.59577 17.544H6.70377L6.29877 17.949C6.26677 17.983 6.22677 18 6.17877 18H5.49477ZM10.6181 18C10.5981 18 10.5761 17.997 10.5521 17.991C10.5301 17.985 10.5091 17.98 10.4891 17.976L9.95506 17.844L9.34306 17.64C9.28306 17.62 9.25306 17.562 9.25306 17.466V15.471C9.25306 15.423 9.27006 15.383 9.30406 15.351L9.90406 14.751C9.93806 14.717 9.97806 14.7 10.0241 14.7H10.9841C11.0301 14.7 11.0701 14.717 11.1041 14.751L11.7041 15.351C11.7381 15.383 11.7551 15.423 11.7551 15.471V16.701H10.1441L10.1231 17.1L10.5491 17.241L11.3141 17.295C11.3481 17.301 11.3651 17.324 11.3651 17.364V17.925C11.3651 17.975 11.3401 18 11.2901 18H10.6181ZM10.4981 16.23H10.5551C10.6531 16.23 10.7311 16.193 10.7891 16.119C10.8491 16.045 10.8791 15.945 10.8791 15.819V15.759C10.8791 15.635 10.8491 15.536 10.7891 15.462C10.7311 15.388 10.6531 15.351 10.5551 15.351H10.4951C10.3991 15.351 10.3221 15.388 10.2641 15.462C10.2081 15.536 10.1801 15.635 10.1801 15.759V15.819C10.1801 15.945 10.2081 16.045 10.2641 16.119C10.3221 16.193 10.4001 16.23 10.4981 16.23ZM13.1295 18C13.0835 18 13.0435 17.983 13.0095 17.949L12.4095 17.349C12.3755 17.317 12.3585 17.277 12.3585 17.229V15.471C12.3585 15.423 12.3755 15.383 12.4095 15.351L13.0095 14.751C13.0435 14.717 13.0835 14.7 13.1295 14.7H14.7345C14.7845 14.7 14.8095 14.725 14.8095 14.775V17.925C14.8095 17.975 14.7845 18 14.7345 18H14.1105C14.0845 18 14.0645 17.995 14.0505 17.985C14.0385 17.975 14.0245 17.963 14.0085 17.949L13.8585 17.799L13.7085 17.949C13.6765 17.983 13.6365 18 13.5885 18H13.1295ZM13.4805 17.301H13.6905C13.7545 17.301 13.7985 17.288 13.8225 17.262C13.8465 17.236 13.8585 17.19 13.8585 17.124V15.399H13.4805C13.4145 15.399 13.3695 15.412 13.3455 15.438C13.3215 15.464 13.3095 15.51 13.3095 15.576V17.124C13.3095 17.19 13.3215 17.236 13.3455 17.262C13.3695 17.288 13.4145 17.301 13.4805 17.301ZM16.1984 18C16.1524 18 16.1124 17.983 16.0784 17.949L15.5774 17.451C15.5454 17.417 15.5294 17.377 15.5294 17.331V15.399H15.4034C15.3534 15.399 15.3284 15.374 15.3284 15.324V14.775C15.3284 14.725 15.3534 14.7 15.4034 14.7H15.5294V14.325C15.5294 14.275 15.5544 14.25 15.6044 14.25H16.4024C16.4524 14.25 16.4774 14.275 16.4774 14.325V14.7H16.7684C16.8184 14.7 16.8434 14.725 16.8434 14.775V15.324C16.8434 15.374 16.8184 15.399 16.7684 15.399H16.4774V17.001C16.4774 17.039 16.4894 17.07 16.5134 17.094L16.8074 17.391C16.8274 17.409 16.8374 17.439 16.8374 17.481V17.925C16.8374 17.975 16.8124 18 16.7624 18H16.1984ZM18.4135 18C18.3635 18 18.3385 17.975 18.3385 17.925V14.775C18.3385 14.725 18.3635 14.7 18.4135 14.7H20.0185C20.0645 14.7 20.1045 14.717 20.1385 14.751L20.7385 15.351C20.7725 15.383 20.7895 15.423 20.7895 15.471V17.925C20.7895 17.975 20.7645 18 20.7145 18H19.9135C19.8635 18 19.8385 17.975 19.8385 17.925V15.591C19.8385 15.497 19.7915 15.45 19.6975 15.45H19.2895V17.925C19.2895 17.975 19.2645 18 19.2145 18H18.4135ZM22.2409 18C22.1949 18 22.1549 17.983 22.1209 17.949L21.5209 17.349C21.4869 17.317 21.4699 17.277 21.4699 17.229V15.471C21.4699 15.423 21.4869 15.383 21.5209 15.351L22.1209 14.751C22.1549 14.717 22.1949 14.7 22.2409 14.7H23.1499C23.1979 14.7 23.2379 14.717 23.2699 14.751L23.8699 15.351C23.9039 15.383 23.9209 15.423 23.9209 15.471V17.229C23.9209 17.277 23.9039 17.317 23.8699 17.349L23.2699 17.949C23.2379 17.983 23.1979 18 23.1499 18H22.2409ZM22.5919 17.301H22.8019C22.8659 17.301 22.9099 17.288 22.9339 17.262C22.9579 17.236 22.9699 17.19 22.9699 17.124V15.576C22.9699 15.51 22.9579 15.464 22.9339 15.438C22.9099 15.412 22.8659 15.399 22.8019 15.399H22.5919C22.5259 15.399 22.4809 15.412 22.4569 15.438C22.4329 15.464 22.4209 15.51 22.4209 15.576V17.124C22.4209 17.19 22.4329 17.236 22.4569 17.262C22.4809 17.288 22.5259 17.301 22.5919 17.301ZM25.3698 18C25.3238 18 25.2838 17.983 25.2498 17.949L24.6498 17.349C24.6158 17.317 24.5988 17.277 24.5988 17.229V14.775C24.5988 14.725 24.6238 14.7 24.6738 14.7H25.4748C25.5248 14.7 25.5498 14.725 25.5498 14.775V17.25H26.0508V14.775C26.0508 14.725 26.0758 14.7 26.1258 14.7H26.9238C26.9738 14.7 26.9988 14.725 26.9988 14.775V17.25H27.4998V14.775C27.4998 14.725 27.5248 14.7 27.5748 14.7H28.3758C28.4258 14.7 28.4508 14.725 28.4508 14.775V17.229C28.4508 17.277 28.4338 17.317 28.3998 17.349L27.7998 17.949C27.7658 17.983 27.7258 18 27.6798 18H26.9958C26.9478 18 26.9078 17.983 26.8758 17.949L26.4708 17.544H26.5788L26.1738 17.949C26.1418 17.983 26.1018 18 26.0538 18H25.3698ZM29.1791 18.54C29.1251 18.54 29.0981 18.513 29.0981 18.459V18.039C29.0981 17.987 29.1251 17.961 29.1791 17.961H29.3981C29.4581 17.961 29.4881 17.936 29.4881 17.886V17.796H29.1041C29.0541 17.796 29.0291 17.769 29.0291 17.715L29.0351 16.956C29.0351 16.902 29.0611 16.875 29.1131 16.875H30.0641C30.1141 16.875 30.1391 16.902 30.1391 16.956V17.874C30.1391 18.098 30.0861 18.265 29.9801 18.375C29.8741 18.485 29.7321 18.54 29.5541 18.54H29.1791ZM31.674 18C31.624 18 31.599 17.975 31.599 17.925V17.439C31.599 17.393 31.614 17.363 31.644 17.349L32.256 16.986V16.674L31.644 16.344C31.614 16.326 31.599 16.295 31.599 16.251V15.294C31.599 15.272 31.602 15.254 31.608 15.24C31.616 15.226 31.627 15.214 31.641 15.204L32.28 14.736C32.302 14.72 32.32 14.71 32.334 14.706C32.348 14.702 32.362 14.7 32.376 14.7H33.105C33.155 14.7 33.18 14.725 33.18 14.775V15.246C33.18 15.28 33.177 15.303 33.171 15.315C33.167 15.327 33.157 15.337 33.141 15.345L32.574 15.651V15.999L33.18 16.299C33.214 16.313 33.231 16.343 33.231 16.389V17.31C33.231 17.36 33.214 17.4 33.18 17.43L32.541 17.961C32.509 17.987 32.469 18 32.421 18H31.674ZM33.935 18C33.885 18 33.86 17.975 33.86 17.925V14.076C33.86 14.026 33.885 14.001 33.935 14.001H34.736C34.786 14.001 34.811 14.026 34.811 14.076V14.7H35.54C35.586 14.7 35.626 14.717 35.66 14.751L36.26 15.351C36.294 15.383 36.311 15.423 36.311 15.471V17.925C36.311 17.975 36.286 18 36.236 18H35.435C35.385 18 35.36 17.975 35.36 17.925V15.576C35.36 15.492 35.318 15.45 35.234 15.45H34.811V17.925C34.811 17.975 34.786 18 34.736 18H33.935ZM37.0873 18C37.0373 18 37.0123 17.975 37.0123 17.925V14.775C37.0123 14.725 37.0373 14.7 37.0873 14.7H37.8853C37.9353 14.7 37.9603 14.725 37.9603 14.775V17.925C37.9603 17.975 37.9353 18 37.8853 18H37.0873ZM37.0723 14.451C37.0323 14.451 37.0123 14.431 37.0123 14.391V14.01C37.0123 13.97 37.0323 13.95 37.0723 13.95H37.9063C37.9423 13.95 37.9603 13.97 37.9603 14.01V14.391C37.9603 14.431 37.9423 14.451 37.9063 14.451H37.0723ZM38.7338 18C38.6838 18 38.6588 17.975 38.6588 17.925V14.775C38.6588 14.725 38.6838 14.7 38.7338 14.7H40.3388C40.3848 14.7 40.4248 14.717 40.4588 14.751L41.0588 15.351C41.0928 15.383 41.1098 15.423 41.1098 15.471V17.925C41.1098 17.975 41.0848 18 41.0348 18H40.2338C40.1838 18 40.1588 17.975 40.1588 17.925V15.591C40.1588 15.497 40.1118 15.45 40.0178 15.45H39.6098V17.925C39.6098 17.975 39.5848 18 39.5348 18H38.7338ZM43.1552 18C43.1352 18 43.1132 17.997 43.0892 17.991C43.0672 17.985 43.0462 17.98 43.0262 17.976L42.4922 17.844L41.8802 17.64C41.8202 17.62 41.7902 17.562 41.7902 17.466V15.471C41.7902 15.423 41.8072 15.383 41.8412 15.351L42.4412 14.751C42.4752 14.717 42.5152 14.7 42.5612 14.7H43.5212C43.5672 14.7 43.6072 14.717 43.6412 14.751L44.2412 15.351C44.2752 15.383 44.2922 15.423 44.2922 15.471V16.701H42.6812L42.6602 17.1L43.0862 17.241L43.8512 17.295C43.8852 17.301 43.9022 17.324 43.9022 17.364V17.925C43.9022 17.975 43.8772 18 43.8272 18H43.1552ZM43.0352 16.23H43.0922C43.1902 16.23 43.2682 16.193 43.3262 16.119C43.3862 16.045 43.4162 15.945 43.4162 15.819V15.759C43.4162 15.635 43.3862 15.536 43.3262 15.462C43.2682 15.388 43.1902 15.351 43.0922 15.351H43.0322C42.9362 15.351 42.8592 15.388 42.8012 15.462C42.7452 15.536 42.7172 15.635 42.7172 15.759V15.819C42.7172 15.945 42.7452 16.045 42.8012 16.119C42.8592 16.193 42.9372 16.23 43.0352 16.23ZM45.9107 18C45.8607 18 45.8357 17.975 45.8357 17.925V14.076C45.8357 14.026 45.8607 14.001 45.9107 14.001H46.7117C46.7617 14.001 46.7867 14.026 46.7867 14.076V17.925C46.7867 17.975 46.7617 18 46.7117 18H45.9107ZM48.1979 18C48.1519 18 48.1119 17.983 48.0779 17.949L47.4779 17.349C47.4439 17.317 47.4269 17.277 47.4269 17.229V15.471C47.4269 15.423 47.4439 15.383 47.4779 15.351L48.0779 14.751C48.1119 14.717 48.1519 14.7 48.1979 14.7H49.8029C49.8529 14.7 49.8779 14.725 49.8779 14.775V17.925C49.8779 17.975 49.8529 18 49.8029 18H49.1789C49.1529 18 49.1329 17.995 49.1189 17.985C49.1069 17.975 49.0929 17.963 49.0769 17.949L48.9269 17.799L48.7769 17.949C48.7449 17.983 48.7049 18 48.6569 18H48.1979ZM48.5489 17.301H48.7589C48.8229 17.301 48.8669 17.288 48.8909 17.262C48.9149 17.236 48.9269 17.19 48.9269 17.124V15.399H48.5489C48.4829 15.399 48.4379 15.412 48.4139 15.438C48.3899 15.464 48.3779 15.51 48.3779 15.576V17.124C48.3779 17.19 48.3899 17.236 48.4139 17.262C48.4379 17.288 48.4829 17.301 48.5489 17.301ZM51.2668 18C51.2208 18 51.1808 17.983 51.1468 17.949L50.6458 17.451C50.6138 17.417 50.5978 17.377 50.5978 17.331V15.399H50.4718C50.4218 15.399 50.3968 15.374 50.3968 15.324V14.775C50.3968 14.725 50.4218 14.7 50.4718 14.7H50.5978V14.325C50.5978 14.275 50.6228 14.25 50.6728 14.25H51.4708C51.5208 14.25 51.5458 14.275 51.5458 14.325V14.7H51.8368C51.8868 14.7 51.9118 14.725 51.9118 14.775V15.324C51.9118 15.374 51.8868 15.399 51.8368 15.399H51.5458V17.001C51.5458 17.039 51.5578 17.07 51.5818 17.094L51.8758 17.391C51.8958 17.409 51.9058 17.439 51.9058 17.481V17.925C51.9058 17.975 51.8808 18 51.8308 18H51.2668ZM53.7958 18C53.7758 18 53.7538 17.997 53.7298 17.991C53.7078 17.985 53.6868 17.98 53.6668 17.976L53.1328 17.844L52.5208 17.64C52.4608 17.62 52.4308 17.562 52.4308 17.466V15.471C52.4308 15.423 52.4478 15.383 52.4818 15.351L53.0818 14.751C53.1158 14.717 53.1558 14.7 53.2018 14.7H54.1618C54.2078 14.7 54.2478 14.717 54.2818 14.751L54.8818 15.351C54.9158 15.383 54.9328 15.423 54.9328 15.471V16.701H53.3218L53.3008 17.1L53.7268 17.241L54.4918 17.295C54.5258 17.301 54.5428 17.324 54.5428 17.364V17.925C54.5428 17.975 54.5178 18 54.4678 18H53.7958ZM53.6758 16.23H53.7328C53.8308 16.23 53.9088 16.193 53.9668 16.119C54.0268 16.045 54.0568 15.945 54.0568 15.819V15.759C54.0568 15.635 54.0268 15.536 53.9668 15.462C53.9088 15.388 53.8308 15.351 53.7328 15.351H53.6728C53.5768 15.351 53.4998 15.388 53.4418 15.462C53.3858 15.536 53.3578 15.635 53.3578 15.759V15.819C53.3578 15.945 53.3858 16.045 53.4418 16.119C53.4998 16.193 53.5778 16.23 53.6758 16.23ZM55.6323 18C55.5823 18 55.5573 17.975 55.5573 17.925V14.775C55.5573 14.725 55.5823 14.7 55.6323 14.7H56.0883C56.1263 14.7 56.1593 14.717 56.1873 14.751L56.4813 15.09L56.8083 14.736C56.8303 14.712 56.8583 14.7 56.8923 14.7H57.2163C57.2663 14.7 57.2913 14.725 57.2913 14.775V15.42C57.2913 15.452 57.2893 15.474 57.2853 15.486C57.2813 15.496 57.2703 15.507 57.2523 15.519L56.5083 16.068V17.925C56.5083 17.975 56.4833 18 56.4333 18H55.6323Z" fill="#007AFF"/>
</svg>
