<svg width="556" height="107" viewBox="0 0 556 107" fill="none" xmlns="http://www.w3.org/2000/svg">
<path d="M0 28C0 12.536 12.536 0 28 0H528C543.464 0 556 12.536 556 28V79C556 94.464 543.464 107 528 107H28C12.536 107 0 94.464 0 79V28Z" fill="url(#paint0_linear_158_41)"/>
<path d="M60.5225 90C59.7225 90 59.3225 89.6 59.3225 88.8V27.216C59.3225 26.416 59.7225 26.016 60.5225 26.016H93.9785C94.7785 26.016 95.1785 26.416 95.1785 27.216V37.584C95.1785 38.384 94.7785 38.784 93.9785 38.784H75.3065V52.416H92.3465C93.1465 52.416 93.5465 52.816 93.5465 53.616V62.4C93.5465 63.2 93.1465 63.6 92.3465 63.6H75.3065V77.184H93.9785C94.7785 77.184 95.1785 77.584 95.1785 78.384V88.8C95.1785 89.6 94.7785 90 93.9785 90H60.5225ZM107.866 90C107.066 90 106.666 89.6 106.666 88.8V27.216C106.666 26.416 107.066 26.016 107.866 26.016H135.13C135.898 26.016 136.538 26.272 137.05 26.784L146.65 36.384C147.194 36.928 147.466 37.568 147.466 38.304V88.8C147.466 89.6 147.066 90 146.266 90H132.682C131.882 90 131.482 89.6 131.482 88.8V38.784H122.65V88.8C122.65 89.6 122.25 90 121.45 90H107.866ZM159.843 90C159.043 90 158.643 89.6 158.643 88.8V27.216C158.643 26.416 159.043 26.016 159.843 26.016H189.123C189.891 26.016 190.531 26.272 191.043 26.784L200.643 36.384C201.187 36.928 201.459 37.568 201.459 38.304V77.664C201.459 78.432 201.187 79.072 200.643 79.584L191.043 89.184C190.531 89.728 189.891 90 189.123 90H159.843ZM174.675 77.184H183.459C184.803 77.184 185.475 76.288 185.475 74.496V41.52C185.475 39.696 184.803 38.784 183.459 38.784H174.675V77.184ZM224.94 90C224.172 90 223.532 89.728 223.02 89.184L213.42 79.584C212.876 79.072 212.604 78.432 212.604 77.664V27.216C212.604 26.416 213.004 26.016 213.804 26.016H227.388C228.188 26.016 228.588 26.416 228.588 27.216V76.224C228.588 76.864 228.908 77.184 229.548 77.184H237.42V27.216C237.42 26.416 237.82 26.016 238.62 26.016H252.204C253.004 26.016 253.404 26.416 253.404 27.216V88.8C253.404 89.6 253.004 90 252.204 90H224.94ZM266.116 90C265.316 90 264.916 89.6 264.916 88.8V27.216C264.916 26.416 265.316 26.016 266.116 26.016H292.132C292.9 26.016 293.54 26.224 294.052 26.64L305.092 37.584C305.444 37.904 305.652 38.176 305.716 38.4C305.812 38.624 305.86 38.992 305.86 39.504V52.656C305.86 53.072 305.7 53.44 305.38 53.76L300.1 58.896L295.636 62.736L300.916 69.744L306.34 81.36C306.468 81.648 306.564 81.936 306.628 82.224C306.724 82.48 306.772 82.8 306.772 83.184V88.8C306.772 89.6 306.372 90 305.572 90H292.9C292.196 90 291.716 89.68 291.46 89.04L283.732 66.576H280.132V88.8C280.132 89.6 279.732 90 278.932 90H266.116ZM285.412 54.816C288.068 54.816 289.876 54.272 290.836 53.184C291.796 52.064 292.276 49.984 292.276 46.944C292.276 43.872 291.796 41.792 290.836 40.704C289.876 39.584 288.068 39.024 285.412 39.024C282.788 39.024 280.98 39.584 279.988 40.704C278.996 41.792 278.5 43.872 278.5 46.944C278.5 49.984 278.996 52.064 279.988 53.184C280.98 54.272 282.788 54.816 285.412 54.816ZM315.28 90C314.48 90 314.08 89.6 314.08 88.8V44.304C314.08 43.888 314.24 43.408 314.56 42.864L325.936 26.736C326.288 26.256 326.8 26.016 327.472 26.016H343.36C344.064 26.016 344.576 26.256 344.896 26.736L356.32 42.864C356.64 43.312 356.8 43.792 356.8 44.304V88.8C356.8 89.6 356.4 90 355.6 90H342.016C341.216 90 340.816 89.6 340.816 88.8V68.4H330.112V88.8C330.112 89.6 329.712 90 328.912 90H315.28ZM335.44 58.08C338.384 58.08 340.368 57.44 341.392 56.16C342.448 54.848 342.976 52.368 342.976 48.72C342.976 45.072 342.448 42.608 341.392 41.328C340.368 40.016 338.384 39.36 335.44 39.36C332.528 39.36 330.544 40.016 329.488 41.328C328.464 42.608 327.952 45.072 327.952 48.72C327.952 52.368 328.464 54.848 329.488 56.16C330.544 57.44 332.528 58.08 335.44 58.08ZM369.241 90C368.441 90 368.041 89.6 368.041 88.8V27.216C368.041 26.416 368.441 26.016 369.241 26.016H396.505C397.273 26.016 397.913 26.272 398.425 26.784L408.025 36.384C408.569 36.928 408.841 37.568 408.841 38.304V88.8C408.841 89.6 408.441 90 407.641 90H394.057C393.257 90 392.857 89.6 392.857 88.8V38.784H384.025V88.8C384.025 89.6 383.625 90 382.825 90H369.241ZM438.498 90C437.762 90 437.122 89.792 436.578 89.376L428.754 82.224L420.834 71.904C420.482 71.456 420.258 71.184 420.162 71.088C420.066 70.96 420.018 70.672 420.018 70.224V45.744C420.018 45.296 420.066 45.008 420.162 44.88C420.29 44.752 420.514 44.48 420.834 44.064L428.178 34.56L436.578 26.64C436.93 26.352 437.202 26.176 437.394 26.112C437.618 26.048 437.986 26.016 438.498 26.016H450.354C451.154 26.016 451.554 26.416 451.554 27.216V34.896C451.554 35.152 451.522 35.424 451.458 35.712C451.426 35.968 451.266 36.192 450.978 36.384L441.954 42.576L436.05 50.16V65.856L442.05 73.44L450.978 79.584C451.234 79.744 451.394 79.936 451.458 80.16C451.522 80.384 451.554 80.624 451.554 80.88V88.8C451.554 89.6 451.154 90 450.354 90H438.498ZM462.054 90C461.254 90 460.854 89.6 460.854 88.8V27.216C460.854 26.416 461.254 26.016 462.054 26.016H495.51C496.31 26.016 496.71 26.416 496.71 27.216V37.584C496.71 38.384 496.31 38.784 495.51 38.784H476.838V52.416H493.878C494.678 52.416 495.078 52.816 495.078 53.616V62.4C495.078 63.2 494.678 63.6 493.878 63.6H476.838V77.184H495.51C496.31 77.184 496.71 77.584 496.71 78.384V88.8C496.71 89.6 496.31 90 495.51 90H462.054Z" fill="white"/>
<defs>
<linearGradient id="paint0_linear_158_41" x1="0" y1="53.5" x2="556" y2="53.5" gradientUnits="userSpaceOnUse">
<stop offset="0.455" stop-color="#00C939"/>
<stop offset="1" stop-color="#00631C"/>
</linearGradient>
</defs>
</svg>
