<svg width="353" height="107" viewBox="0 0 353 107" fill="none" xmlns="http://www.w3.org/2000/svg">
<path d="M0 28C0 12.536 12.536 0 28 0H325C340.464 0 353 12.536 353 28V79C353 94.464 340.464 107 325 107H28C12.536 107 0 94.464 0 79V28Z" fill="url(#paint0_linear_158_42)"/>
<path d="M64.8794 90C64.0794 90 63.6794 89.6 63.6794 88.8V79.776C63.6794 79.36 63.6954 79.024 63.7274 78.768C63.7914 78.512 63.9834 78.304 64.3034 78.144L76.8794 72.384V63.84L64.4954 56.16C63.9514 55.84 63.6794 55.36 63.6794 54.72V37.104C63.6794 36.592 63.7114 36.224 63.7754 36C63.8394 35.744 64.0794 35.472 64.4954 35.184L77.1194 26.64C77.4394 26.448 77.7274 26.304 77.9834 26.208C78.2714 26.08 78.6234 26.016 79.0394 26.016H91.9994C92.7994 26.016 93.1994 26.416 93.1994 27.216V35.376C93.1994 36.08 92.9594 36.56 92.4794 36.816L79.9034 42V50.88L92.4794 58.08C92.9594 58.304 93.1994 58.816 93.1994 59.616V80.496C93.1994 80.752 93.1514 81.024 93.0554 81.312C92.9914 81.6 92.8314 81.808 92.5754 81.936L77.5034 89.424C77.3114 89.52 77.0714 89.648 76.7834 89.808C76.5274 89.936 76.2714 90 76.0154 90H64.8794ZM104.476 90C103.676 90 103.276 89.6 103.276 88.8V27.216C103.276 26.416 103.676 26.016 104.476 26.016H131.02C131.788 26.016 132.428 26.272 132.94 26.784L142.54 36.384C143.084 36.928 143.356 37.568 143.356 38.304V54.864C143.356 55.632 143.084 56.272 142.54 56.784L132.94 66.384C132.428 66.928 131.788 67.2 131.02 67.2H119.26V88.8C119.26 89.6 118.86 90 118.06 90H104.476ZM122.86 54.144C125.516 54.144 127.324 53.616 128.284 52.56C129.276 51.504 129.772 49.504 129.772 46.56C129.772 43.616 129.276 41.616 128.284 40.56C127.324 39.504 125.516 38.976 122.86 38.976C120.236 38.976 118.428 39.504 117.436 40.56C116.476 41.616 115.996 43.616 115.996 46.56C115.996 49.504 116.476 51.504 117.436 52.56C118.428 53.616 120.236 54.144 122.86 54.144ZM152.288 90C151.488 90 151.088 89.6 151.088 88.8V27.216C151.088 26.416 151.488 26.016 152.288 26.016H185.744C186.544 26.016 186.944 26.416 186.944 27.216V37.584C186.944 38.384 186.544 38.784 185.744 38.784H167.072V52.416H184.112C184.912 52.416 185.312 52.816 185.312 53.616V62.4C185.312 63.2 184.912 63.6 184.112 63.6H167.072V77.184H185.744C186.544 77.184 186.944 77.584 186.944 78.384V88.8C186.944 89.6 186.544 90 185.744 90H152.288ZM199.632 90C198.832 90 198.432 89.6 198.432 88.8V27.216C198.432 26.416 198.832 26.016 199.632 26.016H233.088C233.888 26.016 234.288 26.416 234.288 27.216V37.584C234.288 38.384 233.888 38.784 233.088 38.784H214.416V52.416H231.456C232.256 52.416 232.656 52.816 232.656 53.616V62.4C232.656 63.2 232.256 63.6 231.456 63.6H214.416V77.184H233.088C233.888 77.184 234.288 77.584 234.288 78.384V88.8C234.288 89.6 233.888 90 233.088 90H199.632ZM246.64 90C245.84 90 245.44 89.6 245.44 88.8V27.216C245.44 26.416 245.84 26.016 246.64 26.016H275.92C276.688 26.016 277.328 26.272 277.84 26.784L287.44 36.384C287.984 36.928 288.256 37.568 288.256 38.304V77.664C288.256 78.432 287.984 79.072 287.44 79.584L277.84 89.184C277.328 89.728 276.688 90 275.92 90H246.64ZM261.472 77.184H270.256C271.6 77.184 272.272 76.288 272.272 74.496V41.52C272.272 39.696 271.6 38.784 270.256 38.784H261.472V77.184Z" fill="white"/>
<defs>
<linearGradient id="paint0_linear_158_42" x1="0" y1="53.5" x2="353" y2="53.5" gradientUnits="userSpaceOnUse">
<stop offset="0.4" stop-color="#31BBE9"/>
<stop offset="1" stop-color="#1B6983"/>
</linearGradient>
</defs>
</svg>
