<svg width="446" height="107" viewBox="0 0 446 107" fill="none" xmlns="http://www.w3.org/2000/svg">
<path d="M0 28C0 12.536 12.536 0 28 0H418C433.464 0 446 12.536 446 28V79C446 94.464 433.464 107 418 107H28C12.536 107 0 94.464 0 79V28Z" fill="url(#paint0_linear_158_39)"/>
<path d="M54.0044 90C53.2044 90 52.8044 89.6 52.8044 88.8V79.776C52.8044 79.36 52.8204 79.024 52.8524 78.768C52.9164 78.512 53.1084 78.304 53.4284 78.144L66.0044 72.384V63.84L53.6204 56.16C53.0764 55.84 52.8044 55.36 52.8044 54.72V37.104C52.8044 36.592 52.8364 36.224 52.9004 36C52.9644 35.744 53.2044 35.472 53.6204 35.184L66.2444 26.64C66.5644 26.448 66.8524 26.304 67.1084 26.208C67.3964 26.08 67.7484 26.016 68.1644 26.016H81.1244C81.9244 26.016 82.3244 26.416 82.3244 27.216V35.376C82.3244 36.08 82.0844 36.56 81.6044 36.816L69.0284 42V50.88L81.6044 58.08C82.0844 58.304 82.3244 58.816 82.3244 59.616V80.496C82.3244 80.752 82.2764 81.024 82.1804 81.312C82.1164 81.6 81.9564 81.808 81.7004 81.936L66.6284 89.424C66.4364 89.52 66.1964 89.648 65.9084 89.808C65.6524 89.936 65.3964 90 65.1404 90H54.0044ZM103.201 90C102.401 90 102.001 89.6 102.001 88.8V38.784H93.6006C92.8006 38.784 92.4006 38.384 92.4006 37.584V27.216C92.4006 26.416 92.8006 26.016 93.6006 26.016H126.385C127.185 26.016 127.585 26.416 127.585 27.216V37.584C127.585 38.384 127.185 38.784 126.385 38.784H117.985V88.8C117.985 89.6 117.585 90 116.785 90H103.201ZM139.952 90C139.152 90 138.752 89.6 138.752 88.8V44.304C138.752 43.888 138.912 43.408 139.232 42.864L150.608 26.736C150.96 26.256 151.472 26.016 152.144 26.016H168.032C168.736 26.016 169.248 26.256 169.568 26.736L180.992 42.864C181.312 43.312 181.472 43.792 181.472 44.304V88.8C181.472 89.6 181.072 90 180.272 90H166.688C165.888 90 165.488 89.6 165.488 88.8V68.4H154.784V88.8C154.784 89.6 154.384 90 153.584 90H139.952ZM160.112 58.08C163.056 58.08 165.04 57.44 166.064 56.16C167.12 54.848 167.648 52.368 167.648 48.72C167.648 45.072 167.12 42.608 166.064 41.328C165.04 40.016 163.056 39.36 160.112 39.36C157.2 39.36 155.216 40.016 154.16 41.328C153.136 42.608 152.624 45.072 152.624 48.72C152.624 52.368 153.136 54.848 154.16 56.16C155.216 57.44 157.2 58.08 160.112 58.08ZM193.913 90C193.113 90 192.713 89.6 192.713 88.8V36.72C192.713 35.984 192.985 35.344 193.529 34.8L201.497 26.784C202.041 26.272 202.681 26.016 203.417 26.016H214.409C215.145 26.016 215.785 26.272 216.329 26.784L224.393 34.896H226.649L234.713 26.784C235.257 26.272 235.897 26.016 236.633 26.016H247.577C248.345 26.016 248.985 26.272 249.497 26.784L257.513 34.8C258.057 35.344 258.329 35.984 258.329 36.72V88.8C258.329 89.6 257.929 90 257.129 90H243.497C242.697 90 242.297 89.6 242.297 88.8V38.784H233.513V88.8C233.513 89.6 233.113 90 232.313 90H218.729C217.929 90 217.529 89.6 217.529 88.8V38.784H208.697V88.8C208.697 89.6 208.297 90 207.497 90H193.913ZM271.069 90C270.269 90 269.869 89.6 269.869 88.8V27.216C269.869 26.416 270.269 26.016 271.069 26.016H284.653C285.453 26.016 285.853 26.416 285.853 27.216V88.8C285.853 89.6 285.453 90 284.653 90H271.069ZM298.538 90C297.738 90 297.338 89.6 297.338 88.8V27.216C297.338 26.416 297.738 26.016 298.538 26.016H325.802C326.57 26.016 327.21 26.272 327.722 26.784L337.322 36.384C337.866 36.928 338.138 37.568 338.138 38.304V88.8C338.138 89.6 337.738 90 336.938 90H323.354C322.554 90 322.154 89.6 322.154 88.8V38.784H313.322V88.8C313.322 89.6 312.922 90 312.122 90H298.538ZM350.515 90C349.715 90 349.315 89.6 349.315 88.8V44.304C349.315 43.888 349.475 43.408 349.795 42.864L361.171 26.736C361.523 26.256 362.035 26.016 362.707 26.016H378.595C379.299 26.016 379.811 26.256 380.131 26.736L391.555 42.864C391.875 43.312 392.035 43.792 392.035 44.304V88.8C392.035 89.6 391.635 90 390.835 90H377.251C376.451 90 376.051 89.6 376.051 88.8V68.4H365.347V88.8C365.347 89.6 364.947 90 364.147 90H350.515ZM370.675 58.08C373.619 58.08 375.603 57.44 376.627 56.16C377.683 54.848 378.211 52.368 378.211 48.72C378.211 45.072 377.683 42.608 376.627 41.328C375.603 40.016 373.619 39.36 370.675 39.36C367.763 39.36 365.779 40.016 364.723 41.328C363.699 42.608 363.187 45.072 363.187 48.72C363.187 52.368 363.699 54.848 364.723 56.16C365.779 57.44 367.763 58.08 370.675 58.08Z" fill="white"/>
<defs>
<linearGradient id="paint0_linear_158_39" x1="0" y1="53.5" x2="446" y2="53.5" gradientUnits="userSpaceOnUse">
<stop stop-color="#DA31E9"/>
<stop offset="1" stop-color="#7A1B83"/>
</linearGradient>
</defs>
</svg>
