<svg width="504" height="107" viewBox="0 0 504 107" fill="none" xmlns="http://www.w3.org/2000/svg">
<path d="M0 28C0 12.536 12.536 0 28 0H476C491.464 0 504 12.536 504 28V79C504 94.464 491.464 107 476 107H28C12.536 107 0 94.464 0 79V28Z" fill="url(#paint0_linear_158_40)"/>
<path d="M63.1294 90C62.3294 90 61.9294 89.6 61.9294 88.8V79.776C61.9294 79.36 61.9454 79.024 61.9774 78.768C62.0414 78.512 62.2334 78.304 62.5534 78.144L75.1294 72.384V63.84L62.7454 56.16C62.2014 55.84 61.9294 55.36 61.9294 54.72V37.104C61.9294 36.592 61.9614 36.224 62.0254 36C62.0894 35.744 62.3294 35.472 62.7454 35.184L75.3694 26.64C75.6894 26.448 75.9774 26.304 76.2334 26.208C76.5214 26.08 76.8734 26.016 77.2894 26.016H90.2494C91.0494 26.016 91.4494 26.416 91.4494 27.216V35.376C91.4494 36.08 91.2094 36.56 90.7294 36.816L78.1534 42V50.88L90.7294 58.08C91.2094 58.304 91.4494 58.816 91.4494 59.616V80.496C91.4494 80.752 91.4014 81.024 91.3054 81.312C91.2414 81.6 91.0814 81.808 90.8254 81.936L75.7534 89.424C75.5614 89.52 75.3214 89.648 75.0334 89.808C74.7774 89.936 74.5214 90 74.2654 90H63.1294ZM112.326 90C111.526 90 111.126 89.6 111.126 88.8V38.784H102.726C101.926 38.784 101.526 38.384 101.526 37.584V27.216C101.526 26.416 101.926 26.016 102.726 26.016H135.51C136.31 26.016 136.71 26.416 136.71 27.216V37.584C136.71 38.384 136.31 38.784 135.51 38.784H127.11V88.8C127.11 89.6 126.71 90 125.91 90H112.326ZM149.413 90C148.613 90 148.213 89.6 148.213 88.8V27.216C148.213 26.416 148.613 26.016 149.413 26.016H175.429C176.197 26.016 176.837 26.224 177.349 26.64L188.389 37.584C188.741 37.904 188.949 38.176 189.013 38.4C189.109 38.624 189.157 38.992 189.157 39.504V52.656C189.157 53.072 188.997 53.44 188.677 53.76L183.397 58.896L178.933 62.736L184.213 69.744L189.637 81.36C189.765 81.648 189.861 81.936 189.925 82.224C190.021 82.48 190.069 82.8 190.069 83.184V88.8C190.069 89.6 189.669 90 188.869 90H176.197C175.493 90 175.013 89.68 174.757 89.04L167.029 66.576H163.429V88.8C163.429 89.6 163.029 90 162.229 90H149.413ZM168.709 54.816C171.365 54.816 173.173 54.272 174.133 53.184C175.093 52.064 175.573 49.984 175.573 46.944C175.573 43.872 175.093 41.792 174.133 40.704C173.173 39.584 171.365 39.024 168.709 39.024C166.085 39.024 164.277 39.584 163.285 40.704C162.293 41.792 161.797 43.872 161.797 46.944C161.797 49.984 162.293 52.064 163.285 53.184C164.277 54.272 166.085 54.816 168.709 54.816ZM198.913 90C198.113 90 197.713 89.6 197.713 88.8V27.216C197.713 26.416 198.113 26.016 198.913 26.016H232.369C233.169 26.016 233.569 26.416 233.569 27.216V37.584C233.569 38.384 233.169 38.784 232.369 38.784H213.697V52.416H230.737C231.537 52.416 231.937 52.816 231.937 53.616V62.4C231.937 63.2 231.537 63.6 230.737 63.6H213.697V77.184H232.369C233.169 77.184 233.569 77.584 233.569 78.384V88.8C233.569 89.6 233.169 90 232.369 90H198.913ZM246.257 90C245.457 90 245.057 89.6 245.057 88.8V27.216C245.057 26.416 245.457 26.016 246.257 26.016H273.521C274.289 26.016 274.929 26.272 275.441 26.784L285.041 36.384C285.585 36.928 285.857 37.568 285.857 38.304V88.8C285.857 89.6 285.457 90 284.657 90H271.073C270.273 90 269.873 89.6 269.873 88.8V38.784H261.041V88.8C261.041 89.6 260.641 90 259.841 90H246.257ZM309.705 90C308.937 90 308.297 89.728 307.785 89.184L298.185 79.584C297.641 79.072 297.369 78.432 297.369 77.664V38.304C297.369 37.568 297.641 36.928 298.185 36.384L307.785 26.784C308.297 26.272 308.937 26.016 309.705 26.016H338.073C338.873 26.016 339.273 26.416 339.273 27.216V37.584C339.273 38.384 338.873 38.784 338.073 38.784H314.985C314.537 38.784 314.153 38.944 313.833 39.264C313.513 39.584 313.353 39.968 313.353 40.416V75.504C313.353 75.952 313.513 76.336 313.833 76.656C314.153 76.976 314.537 77.136 314.985 77.136H325.353V64.32H319.209C318.409 64.32 318.009 63.92 318.009 63.12V52.8C318.009 52 318.409 51.6 319.209 51.6H338.889C339.689 51.6 340.089 52 340.089 52.8V77.664C340.089 78.432 339.817 79.072 339.273 79.584L329.673 89.184C329.161 89.728 328.521 90 327.753 90H309.705ZM360.951 90C360.151 90 359.751 89.6 359.751 88.8V38.784H351.351C350.551 38.784 350.151 38.384 350.151 37.584V27.216C350.151 26.416 350.551 26.016 351.351 26.016H384.135C384.935 26.016 385.335 26.416 385.335 27.216V37.584C385.335 38.384 384.935 38.784 384.135 38.784H375.735V88.8C375.735 89.6 375.335 90 374.535 90H360.951ZM398.038 90C397.238 90 396.838 89.6 396.838 88.8V27.216C396.838 26.416 397.238 26.016 398.038 26.016H411.622C412.422 26.016 412.822 26.416 412.822 27.216V50.016H424.678V27.216C424.678 26.416 425.078 26.016 425.878 26.016H439.462C440.262 26.016 440.662 26.416 440.662 27.216V88.8C440.662 89.6 440.262 90 439.462 90H425.878C425.078 90 424.678 89.6 424.678 88.8V62.784H412.822V88.8C412.822 89.6 412.422 90 411.622 90H398.038Z" fill="white"/>
<defs>
<linearGradient id="paint0_linear_158_40" x1="0" y1="53.5" x2="504" y2="53.5" gradientUnits="userSpaceOnUse">
<stop stop-color="#E93131"/>
<stop offset="1" stop-color="#831B1B"/>
</linearGradient>
</defs>
</svg>
